# xmcd CD database file
#
# Track frame offsets:
#	150
#	15589
#	34175
#	50556
#	67851
#	79686
#	90066
#	101458
#	118142
#	132399
#	148493
#	167802
#	182391
#	195792
#	206459
#	221393
#	240021
#	251557
#	262389
#	282498
#
# Disc length: 4020 seconds
#
# Revision: 1
# Processed by: cddbd v1.5.1PL0 Copyright (c) Steve Scherf et al.
# Submitted via: CDex 1.51
#
DISCID=120fb214
DTITLE=Heidi Hauge - Country Gold
DYEAR=2005
DGENRE=Country
TTITLE0=Turn it on, turn it up, turn me loose
TTITLE1=Save the last dance for me
TTITLE2=Blanket on the ground
TTITLE3=Seven Spanish angels
TTITLE4=Crying time
TTITLE5=I'm gonna be a country girl again
TTITLE6=Diggy Liggy Lo
TTITLE7=Blue rose is
TTITLE8=Coat of many colors
TTITLE9=Banks of the Ohio
TTITLE10=That'll be mine
TTITLE11=One way street
TTITLE12=Right now
TTITLE13=Once a day
TTITLE14=Don't tell me what to do
TTITLE15=My farewell party
TTITLE16=Love is the foundation
TTITLE17=Hello little Bluebird
TTITLE18=Skaidi
TTITLE19=You got gold
EXTD=YEAR: 2005
EXTT0=
EXTT1=
EXTT2=
EXTT3=
EXTT4=
EXTT5=
EXTT6=
EXTT7=
EXTT8=
EXTT9=
EXTT10=
EXTT11=
EXTT12=
EXTT13=
EXTT14=
EXTT15=
EXTT16=
EXTT17=
EXTT18=
EXTT19=
PLAYORDER=
